<svg version="1.1" id="Layer_1" xmlns="http://www.w3.org/2000/svg" xmlns:xlink="http://www.w3.org/1999/xlink" x="0px" y="0px"
	 width="100%" viewBox="0 0 496 1024" enable-background="new 0 0 496 1024" xml:space="preserve">
<path fill="#000000" opacity="1.000000" stroke="none" 
	d="
M213.477631,79.519302 
	C214.542114,81.972115 215.914749,82.716698 218.366074,82.265755 
	C220.823212,81.813728 222.958694,82.848785 224.082031,85.312279 
	C225.114014,87.575378 225.385605,89.760857 223.506805,91.805305 
	C221.452026,94.041245 220.020020,91.692673 218.197037,90.722122 
	C216.494598,94.685669 217.113113,96.815315 221.503540,96.693871 
	C223.722656,96.632469 225.663193,97.135658 226.031296,99.582321 
	C226.438004,102.285461 224.433029,103.309135 222.253418,104.065514 
	C216.423508,106.088646 214.468033,109.892563 216.266525,115.546745 
	C225.461975,144.455887 230.733917,174.253632 236.292450,203.986908 
	C237.478790,210.332794 238.726746,216.667160 240.425674,222.986938 
	C242.018356,217.903259 242.359634,212.775803 242.158401,207.541977 
	C241.731674,196.443100 241.676926,185.348251 242.412689,174.245468 
	C242.796310,168.456894 242.604660,162.628311 242.612213,156.817734 
	C242.614746,154.872940 241.578827,153.391022 240.250488,152.018341 
	C239.467865,151.209595 238.251114,149.936035 238.450699,149.204865 
	C239.775635,144.351471 238.455536,141.152634 233.743240,138.952301 
	C232.140167,138.203781 233.277023,136.304459 234.490311,135.213303 
	C237.934189,132.116119 240.192566,129.122757 238.660400,123.665024 
	C237.346161,118.983665 241.955673,120.082230 244.746704,119.982498 
	C245.713669,119.628265 245.676773,118.716324 245.888000,117.940697 
	C246.369064,116.174179 247.314331,114.717415 249.334656,115.083450 
	C251.179031,115.417603 251.954529,117.031433 252.197098,118.774712 
	C252.426163,120.421097 252.512695,122.088303 252.635315,123.748314 
	C252.958664,128.125671 255.128494,130.808121 259.653595,131.433655 
	C261.655701,130.174362 261.619080,128.124893 261.636261,126.140556 
	C261.707001,117.974709 261.688293,109.807640 261.824371,101.643059 
	C261.864166,99.258064 260.703583,97.976974 259.145721,96.248253 
	C254.853516,91.485306 251.852402,85.640022 253.092209,79.121712 
	C253.567703,76.621834 255.515717,73.999908 256.618256,71.317360 
	C257.309021,69.636673 259.243073,69.481506 260.974548,70.381447 
	C262.115448,70.974434 263.011414,72.178123 264.855316,71.784149 
	C266.937653,69.179405 264.898407,64.314384 269.182159,62.513432 
	C271.405457,63.343544 271.787018,65.398651 272.215942,67.283722 
	C272.612366,69.025986 273.099091,70.252205 275.134888,70.779266 
	C278.640533,71.686859 279.089813,74.016823 277.080383,76.807533 
	C275.831696,78.541725 274.959442,79.941757 276.592438,82.101196 
	C279.780304,86.316681 279.785980,91.213600 275.185028,93.955711 
	C268.787140,97.768799 268.642792,103.487587 268.497986,109.280373 
	C267.940277,131.589905 265.793701,153.790421 264.166565,176.023224 
	C263.500122,185.129471 261.941498,194.170822 260.772125,203.239563 
	C260.505524,205.306976 259.545868,207.416382 261.176453,209.380737 
	C264.006622,209.390060 263.771027,207.034149 264.169495,205.482101 
	C269.010376,186.626526 274.452148,167.885559 278.253479,148.818878 
	C280.265991,138.724518 282.686371,128.697159 284.389771,118.546997 
	C284.985291,114.998421 286.903076,110.475044 281.071533,108.573715 
	C279.567413,108.083305 279.535522,105.996429 280.793427,104.717613 
	C283.058075,102.415352 282.675873,100.347855 281.337097,97.565033 
	C279.590363,93.934196 284.815094,88.768074 288.677673,88.268089 
	C293.894928,87.592751 297.240845,92.449394 302.506714,91.676552 
	C304.768127,91.344666 306.259979,94.303001 303.861420,96.797508 
	C300.852020,99.927330 299.462769,103.203712 301.817017,107.468826 
	C302.976013,109.568474 302.000427,111.727524 300.428986,113.414490 
	C297.957916,116.067162 295.950562,113.317978 292.661987,112.226349 
	C287.046997,139.304733 281.483154,166.140137 273.816315,193.031448 
	C276.756744,192.570175 277.044952,191.120239 277.572388,189.982727 
	C294.606201,153.247513 310.709259,116.132080 323.443115,77.639343 
	C324.362640,74.859718 325.324585,72.226585 322.442200,69.981979 
	C322.084442,69.703392 321.641205,68.925941 321.772888,68.716934 
	C324.701599,64.068604 322.147491,58.842880 323.388184,54.041607 
	C323.507233,53.580765 324.090820,53.211269 324.138672,52.765034 
	C324.794464,46.649647 327.439545,45.214710 332.151550,49.420654 
	C334.257507,47.824707 333.408417,45.790119 333.769196,44.079197 
	C334.034271,42.822121 334.625946,41.935791 335.941162,41.655575 
	C337.327271,41.360256 338.534363,42.075588 338.710510,43.207123 
	C339.915009,50.944019 346.817169,57.590668 342.962219,66.342186 
	C341.836731,68.897293 337.761871,72.087227 335.100006,71.574417 
	C332.771606,71.125832 332.272491,73.046661 331.697113,74.490601 
	C329.169983,80.832916 326.712677,87.205101 324.353638,93.611954 
	C318.542053,109.395515 313.375122,125.445847 306.879395,140.940491 
	C299.032867,159.657196 290.084656,177.912079 281.607788,196.364334 
	C281.121277,197.423355 280.564240,198.449982 280.078003,199.509109 
	C279.506256,200.754440 278.955383,202.095154 280.363922,203.105530 
	C281.552521,203.958160 282.957947,203.861206 284.131378,203.073837 
	C286.371002,201.570969 288.195709,199.574203 289.613739,197.317505 
	C295.285950,188.290726 300.873657,179.210587 306.436066,170.115616 
	C307.022644,169.156464 307.887695,167.602768 307.518494,166.947723 
	C305.067505,162.599182 307.838135,158.497223 307.748383,154.312836 
	C307.678009,151.033295 309.096924,148.738281 311.712769,147.362930 
	C315.621307,145.307953 320.038513,144.238708 322.910187,140.391052 
	C323.789764,139.212479 325.375031,139.891388 326.464081,140.876907 
	C327.938171,142.210892 329.260925,144.514206 327.993835,145.684525 
	C322.372101,150.876892 326.911835,155.850861 328.006409,162.109848 
	C339.163849,152.407303 346.116241,140.112289 355.226929,130.049103 
	C353.919891,126.961929 349.423004,126.818825 350.396423,123.476921 
	C351.603119,119.334038 356.004395,121.840691 358.972351,120.204666 
	C358.611572,116.883743 358.637115,113.447075 361.513794,110.828606 
	C362.500183,109.930733 363.317169,108.646645 364.784729,108.795204 
	C368.483917,109.169662 370.561340,106.843033 372.717529,104.452148 
	C373.895203,103.146317 375.002136,101.403778 377.298126,102.486000 
	C379.571289,103.557457 379.154358,105.306023 378.617767,107.160973 
	C377.759125,110.129387 379.397614,112.236282 381.093689,114.373253 
	C383.460114,117.354805 383.891724,120.043564 379.733398,121.953629 
	C376.719482,123.338043 375.146301,126.317490 373.750183,128.908783 
	C370.793762,134.395905 370.592010,134.665482 365.518036,130.483765 
	C365.271484,130.280563 364.931885,130.190216 364.406952,129.937042 
	C358.990906,133.450424 356.468842,139.534348 352.570618,144.383301 
	C333.068939,168.641052 312.161041,191.764893 293.888916,217.010727 
	C292.932190,218.332581 292.218048,219.874222 291.623108,221.403824 
	C290.625916,223.967682 292.421265,225.530106 294.098419,226.864151 
	C295.920288,228.313324 297.239807,226.642593 298.360565,225.559723 
	C302.074677,221.971100 305.628021,218.216705 309.315674,214.599945 
	C328.824310,195.466263 348.358368,176.358566 367.873993,157.232025 
	C370.315308,154.839386 372.853119,152.947235 371.716125,148.406906 
	C370.949493,145.345383 374.501526,142.960632 377.159607,141.314026 
	C379.294495,139.991547 381.095703,138.756851 382.540161,136.496902 
	C384.081696,134.085037 386.982391,132.987732 388.967377,136.313721 
	C390.477081,138.843399 391.966705,139.007355 394.220581,137.577316 
	C395.546112,136.736298 397.059479,136.358017 398.343597,137.661179 
	C399.579041,138.914993 399.430603,140.511688 398.611847,141.829224 
	C396.951385,144.501266 398.030701,146.074615 400.333801,147.538773 
	C401.801208,148.471634 402.784821,149.890198 402.146423,151.790466 
	C401.510284,153.683990 399.898254,153.452682 398.386475,153.332352 
	C394.480225,153.021439 392.686676,156.154221 392.263672,158.752686 
	C391.366455,164.264221 387.453857,165.041351 383.549347,164.830231 
	C379.465942,164.609406 380.126648,160.663498 379.860870,157.746475 
	C379.820679,157.305084 379.500671,156.889191 379.047394,155.872116 
	C350.710815,181.737930 325.347076,210.148743 296.604645,236.977875 
	C300.869232,236.918060 302.884430,235.062180 304.903687,233.612488 
	C316.946899,224.966309 328.920502,216.222473 340.866974,207.442657 
	C344.076904,205.083572 345.080719,201.451294 344.533051,197.835541 
	C343.992981,194.269531 345.226257,192.791885 348.467590,192.408554 
	C351.125824,192.094147 353.688354,191.566833 356.130219,190.360245 
	C360.369171,188.265656 364.186188,191.600052 368.344391,191.626785 
	C369.985626,191.637344 370.734955,194.718002 369.597595,196.284302 
	C367.137695,199.671982 373.990997,205.804245 366.211731,207.377518 
	C364.541290,207.715332 363.174469,208.140976 362.193237,209.856979 
	C359.012970,215.418518 358.476929,215.417343 354.156799,210.846832 
	C353.482971,210.133942 352.735992,209.490189 351.557159,208.373245 
	C334.369720,222.220261 315.271362,233.442322 299.636993,249.423676 
	C305.401398,246.696350 311.254974,244.141418 316.915100,241.212662 
	C345.501129,226.421249 374.847717,213.357956 404.982635,202.053818 
	C407.939545,200.944641 410.805359,199.580994 413.668854,198.240265 
	C414.854279,197.685242 416.275940,197.043655 416.167175,195.435867 
	C415.840576,190.609055 418.620056,190.525269 421.937286,191.725128 
	C425.528198,193.023972 427.910065,193.468689 427.904877,188.196198 
	C427.901337,184.597565 431.226318,184.692245 432.870972,186.476440 
	C435.459412,189.284561 437.787872,190.646042 441.472076,188.937790 
	C442.504761,188.458954 443.805267,188.744614 444.514893,189.973953 
	C445.361389,191.440399 444.748505,192.673706 443.564789,193.431564 
	C439.784607,195.851791 438.813568,199.023849 440.429352,203.174637 
	C440.696564,203.861099 440.513855,204.888641 440.198547,205.609665 
	C437.714417,211.290405 424.069855,213.177261 420.495514,207.983292 
	C418.651855,205.304199 417.100800,205.425049 414.749420,206.199753 
	C410.167725,207.709274 405.427734,208.847076 401.018280,210.752151 
	C379.027252,220.253159 357.115448,229.937897 335.198151,239.608749 
	C333.151520,240.511826 331.261719,241.770355 329.573334,243.428238 
	C342.124939,240.570267 354.237701,236.660355 365.672058,230.852661 
	C366.766693,230.296661 367.665955,229.071396 368.300140,227.954758 
	C369.487823,225.863541 371.281158,225.168823 373.358612,225.763397 
	C376.380737,226.628311 378.688202,226.296448 380.830872,223.684219 
	C382.971497,221.074524 385.449371,221.480545 387.557892,224.062775 
	C387.874054,224.449982 388.153076,224.874863 388.508514,225.221619 
	C393.837128,230.420807 393.835022,230.415512 389.847260,236.649216 
	C388.973999,238.014313 387.778229,239.163147 386.163696,238.527374 
	C382.717255,237.170242 380.224976,238.146057 377.815399,240.777451 
	C376.066833,242.687042 373.819641,242.749832 372.493195,240.165192 
	C370.966858,237.191086 368.952057,237.379700 366.275482,238.361801 
	C359.557129,240.826981 352.767639,243.057129 346.227112,246.030945 
	C336.674286,250.374374 326.125549,251.957886 316.579468,256.386322 
	C315.568878,256.855164 314.511444,257.223053 313.563934,258.000946 
	C326.050751,256.405334 338.486694,254.775894 350.983612,253.666275 
	C368.375061,252.122086 385.766754,250.571609 403.021851,247.808350 
	C404.330231,247.598831 406.025421,247.850113 406.727722,246.658966 
	C411.041382,239.342987 417.354980,242.309433 423.232483,243.383926 
	C424.906006,243.689896 426.505493,243.966049 428.154266,243.602829 
	C431.446991,242.877411 435.156738,240.935959 435.968964,246.665146 
	C436.024567,247.057480 436.999390,247.481812 437.604675,247.603760 
	C439.497223,247.985062 441.440216,248.457092 441.256104,250.844910 
	C441.094666,252.937729 439.166931,253.576294 437.494934,254.416534 
	C433.810944,256.267914 430.505402,258.305878 429.897247,263.154480 
	C429.512115,266.225159 427.059174,267.312073 424.316193,265.407257 
	C422.120239,263.882324 420.181580,263.368683 417.405426,263.965698 
	C414.199707,264.655151 411.300903,262.800720 410.581268,259.566681 
	C409.705078,255.629013 407.436401,254.876495 404.054718,255.325150 
	C383.772430,258.015961 363.245697,258.262695 343.010773,261.417206 
	C330.698975,263.336548 318.394592,265.303375 306.089264,267.263641 
	C305.313904,267.387146 304.394348,267.253265 303.753662,268.513306 
	C309.175110,268.513306 314.452179,268.902924 319.653931,268.442047 
	C336.990540,266.906036 354.248840,267.686218 371.506958,269.464417 
	C374.318146,269.754089 377.161163,269.771637 379.991150,269.825653 
	C381.311554,269.850861 382.569763,269.719360 383.611237,268.567413 
	C388.222076,263.467468 391.956482,263.553223 397.980743,266.326324 
	C402.912018,268.596283 408.190216,270.168152 412.906250,273.006561 
	C414.154999,273.758118 415.947937,274.054138 415.897583,275.928833 
	C415.854492,277.531830 414.050110,277.595428 413.176971,278.443878 
	C407.153015,284.297302 399.193329,285.002777 391.648712,286.787567 
	C386.312958,288.049805 384.588593,286.855347 384.946228,281.600372 
	C385.171906,278.284424 383.693054,277.644470 380.997498,277.346161 
	C356.937561,274.683838 332.791107,275.063263 308.663177,275.512421 
	C303.869507,275.601685 298.777130,275.582062 294.050995,277.435150 
	C294.584229,281.564056 297.583099,282.256927 300.299713,282.483093 
	C321.585175,284.254883 342.381104,289.057220 363.309326,292.886505 
	C378.993744,295.756378 394.375641,300.286285 409.880615,304.124146 
	C412.614410,304.800812 414.997925,305.047028 417.072723,302.454132 
	C418.833649,300.253571 421.330139,300.571960 423.397949,302.021606 
	C426.647247,304.299500 429.269867,303.316742 431.931244,301.052368 
	C432.923126,300.208405 434.072388,299.423309 435.285492,299.000488 
	C436.525452,298.568268 438.029816,298.538055 438.981873,299.727020 
	C439.998505,300.996582 439.494843,302.441833 438.473450,303.324432 
	C434.570679,306.696869 435.632202,310.253967 437.686554,314.043243 
	C438.699066,315.910828 439.893066,317.909485 437.901672,319.992523 
	C435.962616,322.020721 434.304443,320.640656 432.553711,319.697266 
	C432.143066,319.475952 431.355927,319.260498 431.145355,319.462616 
	C426.688019,323.740692 420.465424,320.944427 415.626007,323.371674 
	C413.116364,324.630371 411.507355,323.601440 409.859070,322.052582 
	C406.743195,319.124664 406.099487,316.318939 407.904388,311.428162 
	C370.063538,300.272888 331.436493,293.678375 291.752045,287.867676 
	C293.098267,290.569214 294.835510,290.867493 296.281494,291.278748 
	C313.642670,296.216003 330.014008,303.713745 346.621368,310.603821 
	C349.661102,311.864960 352.574341,313.477142 356.052979,311.248566 
	C358.018616,309.989349 359.982880,311.250000 361.115051,313.137177 
	C362.936737,316.173737 365.187988,316.185211 367.813538,314.372040 
	C371.028442,312.151917 373.307312,312.401520 374.434357,316.592651 
	C375.036743,318.832825 377.482239,318.972534 379.051575,320.116943 
	C380.550507,321.209869 382.362427,322.306702 381.891357,324.406464 
	C381.444916,326.396637 379.596069,327.249023 377.642487,327.251587 
	C374.331299,327.255920 372.352783,328.515778 370.592896,331.602966 
	C368.803772,334.741333 364.731415,335.585205 361.465485,337.064453 
	C360.540436,337.483429 359.311310,337.002563 358.963135,335.952240 
	C357.874451,332.667847 356.175995,330.799164 352.254303,330.807434 
	C349.896667,330.812408 349.333099,328.311401 350.112305,326.152740 
	C350.606018,324.784882 351.525970,323.570862 352.780029,321.363129 
	C338.154968,315.149597 323.819092,309.058929 309.356903,302.914581 
	C308.488037,305.629883 309.869049,306.207214 310.877197,306.971710 
	C328.264832,320.157135 345.813843,333.136566 362.983795,346.599457 
	C371.619354,353.370544 379.575806,361.008759 387.822632,368.273865 
	C389.817535,370.031281 391.607117,372.081024 394.666626,371.835846 
	C395.677216,371.754883 397.119232,372.080750 397.195831,373.037262 
	C397.660034,378.834198 403.051453,378.900513 406.456055,381.238129 
	C410.673370,384.133698 410.601654,387.249969 405.789398,389.187042 
	C402.630432,390.458618 401.864105,392.367889 402.227203,395.339600 
	C402.347870,396.327301 402.304016,397.337036 402.306427,398.336761 
	C402.310211,399.894501 402.179779,401.469330 400.300293,401.873871 
	C398.630646,402.233215 398.050629,400.892700 397.369965,399.716187 
	C396.737640,398.623230 396.617096,397.070465 394.682800,396.724274 
	C394.366699,397.079803 393.725159,397.480865 393.592407,398.009644 
	C393.158783,399.736969 392.552063,401.278809 390.513245,401.405914 
	C388.428436,401.535828 387.528534,399.829834 387.045776,398.322968 
	C385.895081,394.731262 384.499817,391.517365 381.885406,388.542267 
	C379.084320,385.354706 381.277649,382.825592 389.116486,380.903473 
	C360.255890,349.077057 323.382263,328.462219 291.286682,301.960052 
	C288.181976,304.042358 286.474487,306.829071 283.187531,306.183777 
	C283.169647,309.044189 284.903259,310.066223 286.154114,311.287140 
	C297.224121,322.092224 307.651428,333.513397 319.051666,344.030884 
	C328.802795,353.027008 337.071381,363.628113 346.020508,373.496796 
	C348.586609,376.326538 350.954834,378.681519 355.678162,378.298553 
	C358.963684,378.032166 363.762177,379.173523 362.827728,384.943542 
	C362.485901,387.054108 364.007904,387.398376 365.553192,387.697815 
	C367.447845,388.065002 369.323700,388.636414 369.016785,391.074677 
	C368.775970,392.988007 367.169983,394.024841 365.449005,394.000732 
	C359.356018,393.915375 360.429504,397.097198 362.141174,400.745026 
	C362.842316,402.239319 363.817444,403.890869 361.829437,405.148407 
	C360.020142,406.292877 358.614441,405.287048 357.524811,403.896088 
	C354.882019,400.522308 349.142914,401.395294 347.576996,396.587769 
	C338.865540,398.529968 339.001251,393.737152 339.859924,387.302032 
	C340.172546,384.959045 340.963013,383.372986 342.674133,381.048370 
	C324.131897,357.578339 301.182220,338.291229 280.616821,316.333618 
	C279.192657,318.521484 280.199432,319.711243 280.814392,320.690186 
	C296.397278,345.497681 306.727478,372.790558 318.218628,399.534119 
	C319.270691,401.982666 320.386200,404.403961 321.472809,406.837646 
	C321.540680,406.989655 321.580200,407.170563 321.688416,407.285980 
	C325.639526,411.501831 329.391022,415.935089 333.627808,419.842010 
	C336.363251,422.364410 336.130463,425.769409 337.316254,428.704559 
	C338.884888,432.587341 340.122894,437.032257 333.301025,437.444641 
	C332.810822,437.474243 332.213287,438.229065 331.930084,438.782074 
	C329.865143,442.814728 327.503845,443.412903 324.394012,439.745209 
	C322.935181,438.024658 321.206848,438.133545 319.727081,439.922119 
	C318.680969,441.186615 317.447723,441.897400 315.793304,441.252594 
	C313.889679,440.510651 313.539032,438.834625 313.739410,437.125671 
	C314.065979,434.339600 312.777435,432.905548 310.371307,431.759949 
	C308.222229,430.736786 307.075836,428.945892 308.554504,426.431061 
	C308.878784,425.879547 309.283539,425.019348 309.075409,424.565216 
	C306.687988,419.356506 307.959839,416.263763 313.742004,414.636414 
	C316.159821,413.955933 315.185089,411.204742 314.444183,409.369598 
	C312.262512,403.965546 309.921509,398.626099 307.689911,393.241882 
	C296.839966,367.063934 285.474976,341.134949 270.608643,316.912415 
	C269.439087,315.006744 268.755981,312.582245 266.041046,311.596954 
	C263.584564,313.906799 264.226318,316.673676 264.821381,319.420532 
	C270.801971,347.028259 277.192688,374.557831 282.466919,402.299744 
	C283.684204,408.702667 288.713440,412.511841 289.888275,418.517120 
	C290.227783,420.252625 292.677155,419.980713 294.315308,420.038300 
	C298.482849,420.184784 300.119843,422.321381 298.938751,426.242737 
	C297.335968,431.564117 294.903564,436.636993 294.769165,442.369843 
	C294.738007,443.697815 293.259766,445.117645 291.934143,444.535065 
	C288.735321,443.129272 284.978790,443.849518 282.018433,441.625458 
	C280.716553,440.647369 279.171417,439.912292 277.634216,439.344299 
	C274.030334,438.012726 268.936066,437.826477 272.438293,431.704895 
	C267.854034,425.723419 271.443817,422.073792 275.941437,418.346252 
	C277.363281,417.167847 277.566833,414.986938 277.095642,412.768219 
	C271.050690,384.304535 265.133759,355.813690 259.184387,327.329712 
	C258.483246,323.972717 256.984039,321.198273 253.655960,319.294952 
	C253.145996,320.187622 252.480423,320.805939 252.575531,321.267456 
	C254.270325,329.491425 253.084564,337.856476 253.921051,346.159637 
	C255.173492,358.591705 253.447433,371.008636 252.035416,383.430847 
	C250.412598,397.707764 246.675964,411.514923 243.638077,425.448120 
	C241.185776,436.695526 240.619156,447.814117 241.348816,459.133057 
	C241.529602,461.937531 242.157974,464.722168 242.709412,467.490265 
	C243.019928,469.048950 243.122971,470.441711 241.574921,471.748962 
	C237.361099,470.551147 236.359650,466.788147 235.774368,463.382202 
	C233.308960,449.035217 233.552277,434.560852 234.160706,420.062683 
	C234.722015,406.687195 239.481796,393.983765 240.156876,380.666656 
	C240.564102,372.633667 242.501419,364.587219 240.797318,356.477142 
	C238.871445,356.549652 238.807587,357.881409 238.650116,358.658539 
	C234.887375,377.228973 226.131378,394.091400 220.446320,412.009613 
	C214.099426,432.013885 208.399124,452.072845 208.267654,473.284637 
	C208.245743,476.820557 208.742691,480.257111 209.795853,483.614502 
	C210.248627,485.057953 210.079788,486.301208 208.771240,487.119659 
	C207.271164,488.057953 206.396210,486.832031 205.333038,486.020935 
	C199.945709,481.911072 199.451965,475.927765 198.969193,469.892212 
	C196.982422,445.054474 203.570663,421.768463 211.944901,398.844818 
	C217.358307,384.026154 224.318375,369.744385 227.038269,354.009491 
	C227.438004,351.696899 227.830887,349.438812 227.560715,345.965057 
	C225.585358,349.699127 223.746689,352.484100 222.560852,355.523773 
	C211.306061,384.373596 202.316772,413.945068 194.248322,443.830109 
	C190.044998,459.398956 185.151489,474.801819 181.912201,490.601135 
	C178.916595,505.211853 177.669678,520.232483 173.933533,534.626404 
	C169.640976,551.163757 169.129761,568.080688 167.386063,584.797485 
	C166.358917,594.644714 165.533859,604.781128 165.945755,614.972961 
	C166.622055,631.707214 165.511139,648.525269 163.661987,665.250854 
	C162.413483,676.543579 163.339813,687.921204 164.545563,699.145020 
	C165.580597,708.779480 165.047531,718.421997 165.992905,728.056580 
	C166.968506,737.999512 168.591263,747.831238 169.734512,757.734680 
	C170.609970,765.318359 171.311371,772.922180 172.095261,780.516541 
	C172.231918,781.840393 172.182007,783.228577 172.576202,784.473755 
	C177.149261,798.919067 179.816803,813.854248 183.065948,828.586243 
	C187.176178,847.222534 194.205704,865.026733 197.646973,883.793579 
	C197.795303,884.602539 198.097198,885.414490 198.480927,886.144470 
	C206.023300,900.492859 210.154648,916.184265 216.250076,931.086304 
	C222.427460,946.188660 227.518173,961.668701 233.176682,976.943176 
	C234.562119,980.683105 231.679520,984.769043 228.403336,987.509705 
	C226.769684,988.876282 224.617203,989.605774 223.823593,991.899658 
	C223.155945,993.829529 221.836838,994.933960 219.619247,994.522034 
	C217.720078,994.169250 216.155762,993.482727 215.503922,991.413574 
	C210.071884,974.170288 201.974701,957.941833 196.893524,940.505432 
	C190.526459,918.656311 182.763855,897.214783 175.653275,875.581055 
	C169.271301,856.164185 163.237778,836.744690 159.052124,816.599731 
	C155.470917,799.363953 152.213501,782.013245 149.867966,764.689758 
	C147.886337,750.054138 146.123322,735.205261 146.245773,720.092957 
	C146.397430,701.374146 144.731964,682.569336 144.787918,663.753296 
	C144.837433,647.101135 145.088364,630.565613 147.229156,613.946899 
	C149.025436,600.002563 148.916809,585.769348 150.643234,571.741150 
	C152.199371,559.096558 153.422165,546.424866 155.488998,533.825195 
	C158.959320,512.669983 163.256500,491.702820 168.077759,470.831451 
	C173.923569,445.524811 181.216888,420.637756 189.946625,396.173279 
	C190.213898,395.424347 190.373932,394.637085 190.302094,393.719513 
	C183.924026,403.426788 177.179520,412.785126 169.910645,421.808044 
	C166.321899,426.262726 166.486221,432.488129 165.422684,437.993744 
	C163.037979,450.338806 159.357346,462.288818 153.830902,473.511841 
	C147.243118,486.890259 136.426010,496.490570 123.794418,504.108429 
	C122.694710,504.771667 121.304512,505.011047 120.014771,505.285065 
	C118.728012,505.558533 117.737404,504.948029 117.149483,503.785675 
	C116.472687,502.447662 117.249794,501.552368 118.217300,500.814026 
	C120.071434,499.398987 121.952057,498.017456 123.846756,496.656921 
	C140.285995,484.852631 148.978073,468.191650 153.703781,449.045532 
	C154.301727,446.622955 154.918106,444.200623 155.383392,441.751099 
	C155.719223,439.983154 156.280609,437.969482 154.317673,436.771881 
	C152.616302,435.733917 151.070648,436.787933 149.731155,437.770996 
	C141.874329,443.537018 132.909363,447.238312 124.238663,451.478668 
	C122.166000,452.492310 119.433289,454.984650 117.775650,451.713348 
	C116.232864,448.668701 119.275139,447.003479 121.569923,445.715820 
	C129.257401,441.402374 137.024338,437.340271 144.205658,432.063538 
	C153.520523,425.219116 162.044968,418.392151 161.087372,405.294586 
	C168.318298,382.297211 174.296921,358.793640 188.207825,338.503754 
	C189.577713,336.505676 190.738098,334.363953 192.753555,331.038544 
	C183.351440,336.686615 177.164703,343.661560 170.586151,350.184418 
	C168.483765,352.268982 169.624893,354.012329 171.027390,355.872559 
	C171.993088,357.153412 173.485031,358.549042 172.521698,360.314392 
	C171.515167,362.158875 169.558289,361.580933 168.003204,361.180756 
	C162.927048,359.874542 162.856216,363.594666 162.693054,366.674072 
	C162.580719,368.793884 163.390823,370.962341 161.137711,373.281219 
	C156.086990,369.007446 153.531876,372.971436 150.795502,376.789337 
	C149.847977,378.111389 148.500931,379.566772 146.611176,378.430450 
	C144.940964,377.426178 145.724823,375.790314 146.124176,374.370544 
	C146.529816,372.928375 147.035706,371.513397 147.412537,370.064362 
	C148.139435,367.269073 147.991684,365.027954 144.215958,364.966248 
	C142.652390,364.940674 141.128922,364.430969 140.902756,362.576080 
	C140.669983,360.667023 141.758530,359.348297 143.463440,358.738129 
	C146.407043,357.684723 148.667450,356.414795 148.889130,352.669983 
	C148.996475,350.856293 151.315491,350.687073 153.023331,350.690063 
	C158.359787,350.699341 162.442581,348.440369 166.085190,344.529724 
	C181.005203,328.511902 199.162354,316.090179 214.892120,300.955566 
	C216.658463,299.256042 218.561356,297.736816 219.574738,294.351013 
	C184.654602,314.136169 153.284073,337.376404 122.378815,360.972229 
	C123.502678,363.500275 125.164413,363.703308 126.353142,364.544403 
	C127.575562,365.409332 129.143646,366.211975 128.381592,368.040039 
	C127.719704,369.627838 126.097672,370.087158 124.568329,369.681244 
	C119.162659,368.246399 116.886009,370.360443 116.706902,375.802826 
	C116.637337,377.916443 115.530228,380.118774 113.211403,380.895020 
	C110.666138,381.747131 109.921593,379.381531 109.074577,377.837402 
	C106.500008,378.353485 105.493935,380.158386 104.285866,381.710602 
	C102.994827,383.369415 101.417450,385.015045 99.287941,383.786957 
	C96.957497,382.443054 97.536430,380.079254 98.448158,378.002686 
	C99.114883,376.484161 99.961189,375.044495 100.979965,373.083710 
	C98.948692,373.165253 96.048996,375.805786 95.623009,372.005341 
	C95.276215,368.911346 92.429558,365.085388 97.360664,362.963043 
	C98.895393,362.302490 100.521584,361.953949 100.593422,359.738098 
	C100.742622,355.136688 103.986214,354.854004 106.884346,356.335663 
	C111.258965,358.572205 114.588326,357.083405 117.945335,354.627899 
	C135.825165,341.549530 153.495148,328.173370 171.621902,315.447449 
	C182.788055,307.608215 194.640472,300.746460 206.185822,293.447479 
	C207.293961,292.746948 208.409668,292.058350 209.555557,291.343201 
	C208.787155,289.599152 207.406494,290.228943 206.496353,290.416412 
	C189.223251,293.974091 172.046722,297.716064 156.271118,306.234558 
	C152.061981,308.507416 150.062775,312.038147 147.635040,315.540283 
	C146.686539,316.908539 145.847946,318.352539 144.942383,319.751099 
	C143.571823,321.867767 142.231384,324.286865 139.162781,323.520691 
	C136.199066,322.780731 137.717270,319.890839 136.932739,317.717651 
	C133.851242,318.387604 131.772400,320.538055 129.460236,322.299835 
	C128.036118,323.384979 126.498352,325.033417 124.669762,323.311951 
	C123.123878,321.856598 123.418701,319.819031 124.590729,318.274628 
	C126.591225,315.638580 127.672249,313.531036 125.692390,309.937073 
	C123.990265,306.847321 128.238815,306.029053 130.029419,304.520447 
	C130.029419,304.023315 130.147598,303.636597 130.010788,303.393158 
	C128.884171,301.388580 125.302132,300.152710 127.240280,297.207581 
	C129.277237,294.112335 132.014786,296.599792 134.392075,297.242615 
	C136.423172,297.791809 138.400360,299.252625 140.186279,296.739105 
	C140.512787,296.279572 141.378265,295.852142 141.907898,295.939270 
	C153.763138,297.889496 164.288055,292.123047 175.453140,290.134186 
	C183.896988,288.630035 192.220932,286.452759 200.538605,284.161774 
	C194.098633,282.409760 187.775116,283.991302 181.458710,284.570862 
	C169.209915,285.694702 156.956253,286.771179 144.718918,288.050568 
	C132.469604,289.331299 120.324883,291.330658 108.112358,292.566742 
	C99.507729,293.437653 91.855141,296.689545 83.790131,298.925537 
	C81.846382,299.464417 81.662216,301.357269 81.118332,302.856842 
	C79.867203,306.306366 77.582100,307.124176 74.475174,305.504578 
	C72.773529,304.617584 71.138428,304.189209 69.225136,304.425842 
	C63.248379,305.165039 62.891617,304.755066 63.969242,298.945435 
	C62.561535,296.385162 57.325520,298.760590 57.756672,294.582977 
	C58.055321,291.689178 61.736351,292.204559 63.965538,291.140076 
	C65.249199,289.246704 62.362526,285.411438 65.343323,285.085236 
	C70.208893,284.552826 76.825729,283.638916 79.781242,286.225403 
	C83.395683,289.388519 85.837288,288.586609 89.262779,288.131805 
	C105.752068,285.942535 122.237900,283.709290 138.758209,281.775787 
	C161.899765,279.067322 185.085800,276.785889 208.367096,275.608429 
	C209.809586,275.535492 211.324280,275.395264 212.750000,273.986053 
	C208.784760,271.446838 204.294678,272.120209 200.196457,271.446899 
	C177.323013,267.688721 154.294998,265.675964 131.085068,266.086792 
	C129.102890,266.121887 127.108810,265.747040 125.127419,265.504303 
	C121.712418,265.085938 118.686798,265.193451 118.110847,269.651947 
	C117.958275,270.833038 117.086784,272.323059 116.058228,272.245300 
	C111.269356,271.883331 106.854218,275.883453 101.896042,273.334747 
	C100.760391,272.750977 99.353851,272.371429 98.094460,272.425140 
	C96.089699,272.510651 94.366730,272.357666 93.583351,270.244385 
	C92.624039,267.656525 94.565895,266.699402 96.320778,265.672455 
	C97.040932,265.251068 97.741974,264.798004 97.845398,263.854156 
	C91.566872,259.344269 91.566872,259.344269 97.530441,254.983307 
	C94.439011,252.725327 91.692032,250.238495 89.206886,247.446518 
	C87.142479,245.127274 85.618828,247.152588 84.393974,248.699112 
	C82.858879,250.637344 81.288506,252.186310 78.531975,251.475327 
	C75.704323,250.745972 75.959435,248.340179 75.650269,246.263062 
	C74.981255,241.768295 72.766136,239.478958 67.891075,240.144043 
	C65.999519,240.402130 63.115017,241.631317 62.566517,238.338165 
	C61.984928,234.846344 64.646072,233.847427 67.453545,233.284515 
	C68.890717,232.996353 70.324310,232.690384 71.617149,232.422012 
	C72.155579,230.885345 71.038124,229.943497 71.003456,228.820023 
	C70.908318,225.736481 72.389603,224.495148 75.369385,225.555313 
	C76.279060,225.878952 77.178551,226.508331 77.832977,227.225540 
	C81.099365,230.805405 84.371674,231.298798 88.041405,227.738571 
	C89.198448,226.616058 90.787735,225.455460 92.535461,226.259109 
	C94.600975,227.208862 94.409103,229.314087 94.101425,231.100174 
	C93.206558,236.294952 96.253227,237.443619 100.449539,237.640472 
	C114.101059,238.280899 127.574997,240.499924 141.061829,242.479340 
	C163.989792,245.844406 186.447784,251.355148 208.627792,258.030914 
	C211.106522,258.776978 213.546432,259.897858 217.093811,259.575043 
	C211.203033,254.298492 204.510803,252.201065 198.151917,249.497665 
	C196.935196,248.980408 195.589783,248.699249 194.469864,248.030807 
	C172.781006,235.085129 148.825729,227.168961 125.849815,217.083694 
	C122.650963,215.679565 119.335014,214.543121 116.080025,213.265564 
	C114.035149,212.462952 112.033661,211.747238 109.845001,212.946793 
	C109.166138,213.318863 107.980515,213.667389 107.486397,213.337814 
	C101.764565,209.521332 97.113747,211.885452 92.992676,216.033310 
	C89.370697,214.057465 88.982468,211.373184 90.400261,208.298599 
	C87.937538,207.418106 85.300964,209.272629 83.664886,206.493088 
	C82.162498,203.940674 84.216026,202.504074 85.092354,200.752274 
	C84.959900,200.346527 84.956818,199.910980 84.745323,199.751114 
	C78.236565,194.830612 78.625191,195.490402 85.692314,191.267181 
	C88.905327,189.347107 94.061844,188.887558 95.126900,183.532745 
	C95.563194,181.339172 98.033180,181.462296 99.505768,183.179840 
	C102.281929,186.417801 104.874329,189.621521 106.882210,193.629578 
	C109.986115,199.825485 114.591400,204.702301 121.951683,207.574600 
	C153.284561,219.802032 184.185837,233.104630 214.400070,248.213196 
	C209.433853,241.883865 203.656509,236.365524 197.480911,231.403549 
	C187.078903,223.045670 177.791855,213.398148 167.230408,205.300613 
	C161.996765,201.287903 155.625320,198.720657 148.542435,199.815369 
	C148.049210,199.891602 147.544815,200.088715 147.066574,200.036713 
	C144.360703,199.742523 140.747574,201.033752 139.334213,198.092026 
	C137.875916,195.056732 142.244980,194.653732 143.390518,192.289581 
	C142.336487,189.132339 139.106949,188.032608 136.830734,185.998962 
	C135.702515,184.990952 134.351227,184.032959 134.763901,182.298935 
	C135.254333,180.238327 137.096970,180.738968 138.493469,180.786057 
	C140.763306,180.862595 142.894180,180.656540 144.316528,178.670883 
	C147.155807,174.707108 150.594925,175.092346 154.449265,176.944382 
	C156.246033,177.807739 158.065689,179.377533 160.314758,178.232071 
	C160.592316,175.814682 158.779434,175.119598 157.656906,174.034210 
	C153.104736,169.632584 148.574341,165.201172 143.857834,160.979706 
	C141.294022,158.684982 138.663376,156.818604 135.498489,160.842148 
	C133.230972,163.724884 131.090988,162.091736 129.938339,159.267517 
	C129.265228,157.618240 130.121582,155.556000 128.686630,154.071213 
	C118.969765,154.704147 118.822662,154.570511 121.916382,147.949509 
	C115.766113,142.581497 115.766113,142.581497 119.042725,137.403931 
	C118.599892,135.640289 116.908134,134.949875 115.784660,133.772507 
	C114.333870,132.252121 113.823959,130.610611 115.140533,128.854660 
	C116.390358,127.187737 117.925049,128.233322 119.178329,128.886353 
	C121.806007,130.255554 124.332367,131.819183 126.978050,133.347870 
	C129.361435,131.464050 129.039398,126.436623 133.551804,127.659973 
	C136.852188,128.554718 135.545563,131.769348 136.260483,134.407227 
	C141.583786,132.905685 143.425064,135.637787 143.377121,140.555069 
	C143.354065,142.921204 144.813507,143.750351 147.007599,143.546921 
	C149.219162,143.341843 152.030823,141.974380 152.964996,145.159470 
	C153.884964,148.296173 151.447418,149.947296 149.035934,151.338028 
	C148.484543,151.656021 148.047104,152.171616 146.730896,153.312637 
	C175.934662,179.866959 202.090378,209.055923 229.123230,238.245819 
	C230.170303,235.560547 228.862122,234.162064 228.093216,232.683273 
	C215.864456,209.165009 202.201538,186.475266 187.888580,164.191635 
	C180.963150,153.409561 173.268326,143.116333 165.768951,132.711990 
	C163.903244,130.123581 161.983795,127.148979 157.755417,130.089050 
	C155.330444,131.775162 153.214966,130.226288 152.791580,127.315605 
	C152.439362,124.894234 151.450714,123.360298 148.962646,122.741600 
	C146.831253,122.211609 145.324860,121.037956 146.104706,118.418289 
	C146.781586,116.144470 144.893585,115.608162 143.493668,114.809662 
	C142.337402,114.150139 141.104340,113.626038 139.941711,112.976723 
	C138.095306,111.945511 136.561752,110.550232 137.061615,108.232948 
	C137.609772,105.691879 139.772949,105.719612 141.841660,105.689438 
	C143.305191,105.668106 144.785568,106.439468 146.223846,105.663551 
	C146.383957,105.336990 146.604385,105.061363 146.654419,104.757668 
	C147.030457,102.474205 145.031158,99.280922 148.229599,98.124901 
	C151.036911,97.110252 152.021866,100.133492 153.400116,101.897964 
	C155.312958,104.346863 156.749100,103.130714 158.144791,101.344299 
	C159.032700,100.207817 159.673264,98.469826 161.610596,99.366241 
	C163.325348,100.159668 163.335999,101.819946 162.811646,103.263153 
	C161.702469,106.315979 163.167587,108.282425 165.150848,110.302940 
	C167.359222,112.552788 168.921280,115.042908 166.530777,118.237030 
	C164.880615,120.441887 166.786087,122.016220 167.878281,123.544365 
	C179.990234,140.490784 192.147369,157.399567 202.814743,175.325836 
	C209.624496,186.769470 216.648315,198.085739 223.946793,209.330338 
	C220.246933,202.024231 220.921432,193.368027 216.406326,186.290283 
	C215.458755,184.804901 215.001404,182.891617 214.724579,181.112274 
	C212.964951,169.802444 206.272491,160.546234 201.851837,150.360687 
	C200.301788,146.789291 195.443893,147.766327 192.219833,146.310684 
	C187.821716,144.324982 186.833282,143.205032 188.801834,138.569382 
	C189.267685,137.472382 190.003677,136.405945 189.266617,135.295853 
	C186.997818,131.878845 185.721298,128.715210 189.069031,124.982979 
	C190.133942,123.795769 188.059540,122.062744 187.181488,120.698166 
	C185.840302,118.613785 183.757156,116.319191 186.188324,114.087296 
	C188.653870,111.823853 190.737671,113.939178 192.584076,115.741577 
	C193.746231,116.875999 194.833664,118.188171 196.572388,118.309631 
	C196.918930,117.938385 197.258423,117.739410 197.334259,117.467026 
	C197.873169,115.531563 195.412781,112.371216 199.296646,111.850922 
	C202.315323,111.446533 203.013901,114.078690 203.793060,116.302254 
	C204.729233,118.973915 205.623993,121.660561 206.596359,124.318886 
	C207.161316,125.863419 208.196899,126.905060 209.995255,126.590157 
	C212.137024,126.215134 212.051208,124.431160 211.649017,123.064705 
	C210.473999,119.072739 211.527603,113.700363 205.167587,112.743332 
	C203.364670,112.472038 202.397675,110.301842 201.794113,108.616600 
	C200.411835,104.757210 200.529892,100.529648 196.260544,97.687531 
	C194.247604,96.347527 196.016205,93.130630 199.320587,91.948921 
	C197.869537,91.118256 197.020126,90.638199 196.176697,90.147820 
	C194.717514,89.299416 193.932983,88.098618 194.574066,86.409752 
	C195.236496,84.664658 196.655716,83.711609 198.474289,83.910271 
	C200.110306,84.089005 201.746445,84.570633 203.298691,85.145149 
	C206.015976,86.150848 207.337479,85.459480 207.611374,82.438126 
	C207.933426,78.885170 209.525620,77.056328 213.477631,79.519302 
M167.554016,255.063751 
	C144.495255,249.633179 121.205009,245.986725 97.179565,245.101456 
	C97.983170,251.552429 104.229362,253.513214 106.588593,253.244461 
	C112.512131,252.569687 116.256889,256.165100 121.025909,257.378235 
	C126.874649,258.866028 133.222763,258.430664 139.359421,258.738129 
	C151.635056,259.353149 163.947144,259.280609 176.178787,260.718903 
	C180.965012,261.281708 185.752716,261.831970 190.539749,262.387939 
	C183.605133,258.194824 175.489807,258.348022 167.554016,255.063751 
M256.543854,186.016083 
	C257.931458,169.837677 260.231720,153.719559 259.936737,137.269577 
	C258.492004,139.211899 256.096008,139.615234 254.816833,141.275742 
	C255.733795,146.302429 255.757050,146.347672 251.405151,148.584152 
	C249.373581,149.628189 249.348923,151.425323 249.318024,153.266815 
	C249.000244,172.210724 248.684006,191.154678 248.393768,210.099030 
	C248.359314,212.347885 248.331711,214.636154 249.759521,216.773682 
	C252.025146,215.018890 252.480774,212.761490 252.803467,210.459686 
	C253.907547,202.584091 254.056381,194.563721 256.543854,186.016083 
M189.971085,214.513794 
	C200.154709,223.872467 210.338333,233.231155 220.521957,242.589828 
	C217.474609,233.697845 173.039886,186.576263 168.216171,185.928909 
	C167.580856,194.023071 167.550522,194.100830 172.805252,198.947342 
	C178.309723,204.024216 183.905380,209.002228 189.971085,214.513794 
M221.646255,162.779282 
	C219.887238,155.519119 218.236053,148.230103 216.306442,141.015549 
	C215.691696,138.717087 215.593628,135.183517 211.292160,136.932007 
	C206.183090,139.008774 205.142609,140.745895 206.993088,144.750931 
	C211.938354,155.454132 217.932465,165.677429 221.547195,176.990631 
	C223.192856,182.141144 224.396545,187.468521 227.146149,192.246140 
	C226.502121,182.470978 222.144760,173.431168 221.646255,162.779282 
M313.953552,180.457001 
	C318.120239,176.145248 321.360657,171.212967 325.367004,165.415894 
	C317.541779,167.086807 300.488831,188.857346 298.065887,198.812759 
	C303.317505,192.733704 308.394867,186.856339 313.953552,180.457001 
M194.382874,353.002106 
	C197.648331,347.163849 200.913788,341.325623 204.179245,335.487366 
	C193.473480,350.110870 185.225937,365.968231 179.035248,382.847778 
	C179.402191,383.029480 179.769119,383.211182 180.136063,383.392883 
	C184.776871,373.489685 189.417679,363.586517 194.382874,353.002106 
z"/>
<path fill="#000000" opacity="1.000000" stroke="none" 
	d="
M429.653564,145.547867 
	C429.901093,144.535843 430.069733,143.892166 430.248199,143.251221 
	C430.903992,140.896225 431.806793,138.411346 434.816895,139.142975 
	C437.555725,139.808655 437.305786,142.272217 436.807007,144.501801 
	C436.591064,145.467224 436.190521,146.446594 437.465149,147.453629 
	C439.770782,147.183044 440.390533,144.786987 441.832733,143.368988 
	C443.249298,141.976135 444.753906,140.096207 446.901489,141.704025 
	C448.917725,143.213516 448.134857,145.152054 446.956055,147.019119 
	C445.466522,149.378372 443.296967,151.355408 442.669128,154.184921 
	C447.489777,159.345444 447.265747,160.775162 440.853668,163.355637 
	C438.195770,164.425278 438.910553,166.155670 439.556030,167.804245 
	C440.422363,170.016953 440.571320,172.163788 438.954865,173.895065 
	C437.171906,175.804688 435.281281,174.299988 433.540985,173.446152 
	C432.433868,172.902954 431.522888,172.789276 430.287262,173.389633 
	C423.119812,176.872101 417.089355,174.007812 415.181824,166.249710 
	C414.628662,164.000000 415.750153,162.309753 417.729523,161.351807 
	C420.770386,159.880173 422.214172,157.779831 421.776459,154.225449 
	C421.459076,151.648468 422.694702,149.387985 425.604706,149.466766 
	C428.369019,149.541611 428.954956,147.874207 429.653564,145.547867 
z"/>
<path fill="#000000" opacity="1.000000" stroke="none" 
	d="
M244.173996,52.722130 
	C247.505325,54.314728 248.721634,56.171829 245.868347,58.905281 
	C244.624939,60.096489 244.543777,61.228958 245.053528,62.893093 
	C247.354080,70.403343 244.048950,74.258087 236.313187,72.653030 
	C233.484467,72.066116 231.111298,71.036148 228.455139,73.011520 
	C227.189148,73.953033 224.973709,72.736259 225.276596,71.903259 
	C227.070190,66.970596 219.049820,62.523026 224.747452,57.505104 
	C226.250626,56.181263 225.041519,54.785702 223.883789,53.719059 
	C221.860367,51.854790 220.132736,49.059643 223.160156,47.697353 
	C225.933609,46.449356 228.912750,41.143307 232.852142,46.271538 
	C233.742401,47.430443 234.703796,49.303017 236.325623,48.413105 
	C241.223251,45.725727 242.290039,49.477348 244.173996,52.722130 
z"/>
<path fill="#000000" opacity="1.000000" stroke="none" 
	d="
M422.112427,362.046936 
	C419.276337,362.771179 416.786346,362.885559 414.409424,364.558075 
	C411.636383,366.509186 408.597900,364.997437 406.210114,362.971985 
	C403.133759,360.362488 406.739685,358.265015 407.080231,355.845551 
	C404.727478,353.279205 400.558685,353.750183 398.750824,349.994507 
	C396.529694,345.380188 397.359467,342.879364 402.476501,342.998749 
	C405.520844,343.069733 407.601044,342.997681 408.044800,339.279724 
	C408.237335,337.666412 409.730255,336.275757 411.628479,336.349854 
	C413.456085,336.421143 413.929871,337.955292 414.256317,339.508331 
	C415.053802,343.302582 417.975311,345.017365 421.302063,345.612457 
	C423.971313,346.089935 427.365570,345.690155 427.282288,349.250763 
	C427.193817,353.032959 430.617584,358.062195 424.447510,360.425934 
	C423.697815,360.713135 423.095001,361.383789 422.112427,362.046936 
z"/>
<path fill="#000000" opacity="1.000000" stroke="none" 
	d="
M461.924744,274.932434 
	C462.578278,275.656494 463.011200,276.372253 463.551910,276.465942 
	C465.192566,276.750183 467.030762,276.596619 467.204620,278.943359 
	C467.372528,281.209442 465.754639,282.230042 464.044403,282.930725 
	C461.460175,283.989471 459.278839,284.904266 460.010681,288.574249 
	C460.377441,290.413574 447.115234,296.486725 445.556580,295.296356 
	C442.652039,293.078125 444.079529,289.786041 443.757782,286.976929 
	C443.476532,286.708160 443.280243,286.365906 443.003662,286.278839 
	C434.990967,283.756195 434.565094,280.744720 440.331177,274.328613 
	C443.562622,270.732880 445.033203,264.622681 451.553802,269.746887 
	C457.470886,266.130341 459.109924,271.432007 461.924744,274.932434 
z"/>
<path fill="#000000" opacity="1.000000" stroke="none" 
	d="
M443.896606,234.159286 
	C441.711121,233.040009 439.368774,232.896454 438.371490,230.544678 
	C437.793030,229.180573 437.658783,227.564453 438.818573,226.883331 
	C443.671295,224.033279 446.952271,219.555466 450.892853,215.765488 
	C451.854797,214.840302 453.051636,214.597290 454.034119,215.476089 
	C455.921021,217.163834 457.680664,218.227249 460.555634,218.080475 
	C462.993927,217.956009 463.747742,220.455841 462.242188,222.448975 
	C459.690155,225.827408 460.558899,228.257553 463.849945,230.210983 
	C465.868317,231.409027 466.702209,232.866089 465.722717,235.141235 
	C464.750519,237.399353 463.023895,237.094833 461.121765,236.697067 
	C458.766449,236.204529 456.741486,235.817291 456.049591,239.402191 
	C454.949738,245.100708 452.252075,245.608109 447.864075,241.780823 
	C445.513947,239.731049 444.995636,237.067810 443.896606,234.159286 
z"/>
<path fill="#000000" opacity="1.000000" stroke="none" 
	d="
M81.545197,156.694977 
	C82.349777,156.041199 82.936768,155.660141 83.287041,155.124329 
	C84.541229,153.205780 84.437325,149.176651 87.703339,150.228394 
	C91.085403,151.317505 96.703979,151.103073 95.680389,157.484497 
	C95.632446,157.783371 95.730316,158.345749 95.894897,158.403809 
	C101.473656,160.371933 99.502235,165.639801 100.787926,169.479431 
	C101.283211,170.958572 101.813675,173.147675 100.434517,173.539658 
	C96.170708,174.751434 92.083237,176.953033 87.446312,176.561050 
	C87.146461,176.535721 86.863358,176.259933 86.581154,176.086517 
	C83.957245,174.474182 78.768822,176.677475 78.513451,172.035019 
	C78.234062,166.956024 77.350456,161.391022 81.545197,156.694977 
z"/>
<path fill="#000000" opacity="1.000000" stroke="none" 
	d="
M91.506165,334.967346 
	C91.009949,335.806122 90.695114,336.370117 90.200920,337.255402 
	C92.417969,338.260132 94.563271,337.569946 96.601814,337.708344 
	C98.280174,337.822266 99.469002,338.483490 99.983017,340.120850 
	C100.504738,341.782715 99.950554,343.562134 98.489975,343.912048 
	C94.102448,344.963226 90.729546,350.342163 85.233070,346.933655 
	C83.290764,345.729187 82.408401,347.951904 81.257011,349.015686 
	C79.844429,350.320862 78.248161,351.301208 76.330139,350.338959 
	C74.558258,349.449982 74.639488,347.660675 74.714180,345.962952 
	C74.756981,344.989929 75.162735,343.579529 74.679977,343.107300 
	C70.182915,338.708191 74.426071,335.144226 75.750175,331.402649 
	C76.629913,328.916748 78.666878,328.895813 80.613968,330.291626 
	C82.770370,331.837555 84.501083,331.363800 86.401672,329.756744 
	C88.297501,328.153717 90.232307,325.075256 93.089745,327.750122 
	C95.888054,330.369629 92.871078,332.498871 91.506165,334.967346 
z"/>
<path fill="#000000" opacity="1.000000" stroke="none" 
	d="
M303.681946,46.485867 
	C303.065216,48.229492 304.364380,49.251957 304.430481,50.558315 
	C304.508789,52.105949 304.031097,54.486797 302.598602,53.983456 
	C298.398529,52.507641 293.374908,55.050083 289.778595,51.265495 
	C287.734131,49.113998 285.097015,47.097973 288.878326,44.027618 
	C290.338806,42.841747 289.444244,40.964020 289.017975,39.354523 
	C288.502686,37.408974 287.954956,35.264469 290.335571,34.155910 
	C292.563385,33.118515 293.565765,34.991497 294.712830,36.400131 
	C294.998169,36.750553 295.512970,36.914124 295.799591,37.088795 
	C296.938965,37.097153 297.362000,36.370869 297.881409,35.723980 
	C299.053589,34.264114 299.431915,31.679558 302.043823,32.118168 
	C304.414764,32.516323 304.247833,34.653812 304.419800,36.457615 
	C304.545624,37.777035 305.482300,38.431335 306.556244,38.975136 
	C308.084534,39.749016 309.510925,40.669891 309.310913,42.678440 
	C309.084229,44.954937 306.964539,44.602604 305.558197,45.242596 
	C304.968109,45.511116 304.418671,45.868961 303.681946,46.485867 
z"/>
<path fill="#000000" opacity="1.000000" stroke="none" 
	d="
M182.774033,69.663010 
	C183.045837,76.814941 180.790222,79.546776 174.861557,79.414932 
	C172.454453,79.361389 171.825302,81.108124 170.821213,82.558006 
	C169.476624,84.499573 167.769974,85.910133 165.377380,84.919754 
	C162.935928,83.909149 163.725143,81.583984 163.931931,79.662712 
	C164.315308,76.100723 164.530869,72.525391 163.455627,69.078011 
	C162.987869,67.578400 162.362122,66.178802 163.466187,64.868645 
	C164.707458,63.395649 166.450150,63.518929 168.082001,64.082802 
	C169.621490,64.614769 171.070786,65.858269 172.749725,64.634872 
	C177.121399,61.449383 179.729950,63.289860 181.555603,67.606697 
	C181.811966,68.212860 182.246124,68.743828 182.774033,69.663010 
z"/>
<path fill="#000000" opacity="1.000000" stroke="none" 
	d="
M472.044495,174.986115 
	C473.640106,174.406052 474.959717,174.082092 476.054840,173.398544 
	C479.404419,171.307755 481.710266,171.439651 482.256500,175.959885 
	C482.385895,177.030884 482.825043,178.097580 483.822021,178.313065 
	C489.496277,179.539551 488.241150,184.745270 489.345642,188.339401 
	C490.135925,190.910904 488.645721,193.221573 485.374237,191.362442 
	C482.697937,189.841553 480.328430,188.863876 477.918213,191.633163 
	C477.735901,191.842636 477.205933,192.017120 477.007690,191.905563 
	C473.319733,189.829788 470.936310,186.194214 468.310120,183.191391 
	C466.668915,181.314865 467.771851,176.703918 472.044495,174.986115 
z"/>
<path fill="#000000" opacity="1.000000" stroke="none" 
	d="
M372.604889,82.823982 
	C371.926331,82.874657 371.482941,82.957649 371.292633,82.775826 
	C368.003143,79.632584 368.062988,75.133743 368.173676,71.388512 
	C368.264557,68.314323 371.563721,65.817131 375.347900,65.793411 
	C377.910095,65.777344 379.594086,64.281509 381.481964,62.923195 
	C384.143250,61.008423 386.427948,62.950905 385.725372,65.035767 
	C384.130035,69.769844 387.338989,74.765633 383.927185,79.460960 
	C382.005646,82.105400 380.904663,84.278191 377.565430,82.317833 
	C375.760315,81.258102 374.434753,81.993973 372.604889,82.823982 
z"/>
<path fill="#000000" opacity="1.000000" stroke="none" 
	d="
M449.020081,118.617859 
	C450.691864,120.248718 450.714569,121.748093 449.513123,123.276535 
	C448.728973,124.274033 448.428894,125.249451 449.129303,126.458153 
	C450.644714,129.073181 450.984406,131.594604 447.720703,133.114777 
	C444.802368,134.474075 441.695435,136.705292 438.986267,132.685959 
	C438.265472,131.616608 437.139130,131.393707 435.993866,131.130997 
	C434.630768,130.818344 432.838043,129.793869 433.163147,128.754868 
	C434.566528,124.269890 431.965240,118.964012 436.057159,115.058151 
	C437.346344,113.827576 439.057709,113.162544 439.844452,114.682007 
	C441.875763,118.605293 445.400757,118.092628 449.020081,118.617859 
z"/>
<path fill="#000000" opacity="1.000000" stroke="none" 
	d="
M469.774200,267.986877 
	C468.379852,266.309509 466.859467,265.405121 465.266724,264.471985 
	C463.091064,263.197388 462.535034,254.596146 464.628174,253.462051 
	C468.665344,251.274673 473.442657,252.055695 477.483276,252.549179 
	C481.626770,253.055237 482.621155,258.042206 483.153809,262.095642 
	C483.316345,263.332733 482.892365,264.945557 481.699951,264.853912 
	C477.353088,264.519745 474.234070,268.122864 469.774200,267.986877 
z"/>
<path fill="#000000" opacity="1.000000" stroke="none" 
	d="
M408.553955,123.989883 
	C405.127350,126.416016 403.237549,124.101395 401.676147,122.029350 
	C399.118195,118.634834 400.150116,112.406540 403.413788,109.489578 
	C403.903168,109.052185 404.353088,108.540489 404.710571,107.991135 
	C405.906403,106.153328 407.001923,104.193092 409.737152,104.840202 
	C412.602905,105.518181 410.959106,108.209297 411.854492,109.827255 
	C413.372528,109.741142 414.830200,109.658447 416.278412,109.576294 
	C419.088348,112.992752 414.805695,115.587036 415.636993,119.072235 
	C416.949799,124.575989 410.667908,121.422066 408.553955,123.989883 
z"/>
<path fill="#000000" opacity="1.000000" stroke="none" 
	d="
M356.952820,424.891418 
	C358.568573,421.739075 360.786072,421.079498 363.072388,423.334167 
	C365.298920,425.529938 367.853180,426.756012 370.749146,427.674133 
	C374.384583,428.826630 374.376831,430.677673 372.012512,433.543030 
	C369.313141,436.814514 366.041229,438.401306 362.002655,439.226349 
	C359.765839,439.683319 357.947815,439.832367 356.929321,437.618774 
	C355.848267,435.269257 352.657593,433.042755 355.564667,430.143036 
	C357.103394,428.608185 357.319855,427.115295 356.952820,424.891418 
z"/>
<path fill="#000000" opacity="1.000000" stroke="none" 
	d="
M460.495880,348.385864 
	C460.238007,351.423676 457.472961,352.881348 457.338470,355.795624 
	C457.266663,357.351685 455.134735,357.359009 453.579498,356.821320 
	C447.416138,354.690460 443.856476,347.629395 445.770081,341.440491 
	C446.194305,340.068481 446.729065,338.984375 448.298859,338.802521 
	C449.716675,338.638306 451.056274,338.913239 451.674500,340.294800 
	C452.775482,342.755096 454.436096,343.455688 457.159668,343.287170 
	C460.148193,343.102325 461.030762,345.278564 460.495880,348.385864 
z"/>
<path fill="#000000" opacity="1.000000" stroke="none" 
	d="
M54.046669,251.066956 
	C52.848965,254.303009 50.690025,254.229309 48.276726,253.330185 
	C43.372463,251.502991 40.257721,244.712402 42.059067,239.796722 
	C42.455120,238.715942 55.577408,234.865250 56.368099,235.697449 
	C58.662319,238.112167 57.516842,240.514572 55.541943,242.120529 
	C52.367653,244.701767 52.006599,247.389221 54.046669,251.066956 
z"/>
<path fill="#000000" opacity="1.000000" stroke="none" 
	d="
M68.235580,200.052261 
	C69.245995,206.694397 64.069855,211.489456 57.865772,210.223450 
	C55.330631,209.706131 54.198616,208.032394 53.987278,205.675262 
	C53.543449,200.725204 56.602188,197.210373 60.227501,195.202759 
	C63.986233,193.121277 65.887138,197.335663 68.235580,200.052261 
z"/>
<path fill="#000000" opacity="1.000000" stroke="none" 
	d="
M395.843994,193.329590 
	C391.932251,193.775040 389.311188,192.520050 387.542419,189.448212 
	C386.843292,188.234039 386.115417,186.412109 387.133301,185.814240 
	C390.876495,183.615585 392.153473,179.676697 394.502686,175.361603 
	C396.688995,179.424667 403.496826,178.790970 402.483215,182.720612 
	C401.588745,186.188232 402.183350,192.174896 395.843994,193.329590 
z"/>
<path fill="#000000" opacity="1.000000" stroke="none" 
	d="
M59.019520,333.877563 
	C62.624348,334.380951 63.060242,336.185150 61.643803,338.834839 
	C60.229977,341.479675 59.202747,343.984314 60.388657,347.242310 
	C61.223423,349.535614 55.452522,353.378204 51.953274,353.048035 
	C48.359795,352.709015 48.760513,350.077881 48.778675,347.494171 
	C48.827454,340.552399 53.604885,337.162872 59.019520,333.877563 
z"/>
<path fill="#000000" opacity="1.000000" stroke="none" 
	d="
M345.164917,95.557007 
	C348.534607,97.676826 349.000397,99.568024 345.363098,101.403084 
	C344.352905,101.912735 342.832489,102.485039 342.612701,103.312019 
	C341.244720,108.459877 337.520020,106.939178 334.231964,106.449875 
	C331.058533,105.977631 330.229919,104.096596 331.205475,101.059196 
	C333.861389,92.790359 333.811707,92.775528 342.375244,94.883224 
	C343.177917,95.080780 343.986603,95.254051 345.164917,95.557007 
z"/>
<path fill="#000000" opacity="1.000000" stroke="none" 
	d="
M120.072250,72.933769 
	C119.449379,70.941994 117.443169,68.891045 119.220383,67.640411 
	C122.154640,65.575592 124.113159,62.214977 127.761894,61.174732 
	C128.158600,61.061638 128.726990,61.348431 129.151993,61.571308 
	C131.190903,62.640526 131.995758,74.162979 130.113190,75.541893 
	C129.453293,76.025261 128.628708,76.278214 127.941826,76.731163 
	C121.136452,81.218864 121.140167,81.224503 120.072250,72.933769 
z"/>
<path fill="#000000" opacity="1.000000" stroke="none" 
	d="
M89.003998,111.455414 
	C91.977959,109.104729 95.362823,108.695076 98.567902,108.326118 
	C103.792084,107.724724 103.161552,113.053055 103.466911,115.365578 
	C104.085548,120.050674 98.757095,120.008362 95.819817,121.609871 
	C93.653145,122.791214 92.010162,121.090271 91.779564,118.743294 
	C91.516487,116.065804 87.696739,114.973167 89.003998,111.455414 
z"/>
<path fill="#000000" opacity="1.000000" stroke="none" 
	d="
M462.710815,312.683411 
	C459.293335,313.618103 455.570282,317.656677 453.308014,313.074402 
	C451.290894,308.988770 456.601135,306.956726 458.464294,303.962860 
	C459.356598,302.529053 462.843964,302.014557 464.258148,304.066345 
	C466.196930,306.879242 465.775940,309.999420 462.710815,312.683411 
z"/>
<path fill="#000000" opacity="1.000000" stroke="none" 
	d="
M196.938049,52.951218 
	C197.413773,52.647999 197.551361,52.551304 197.703629,52.492897 
	C200.076584,51.582756 202.409531,49.594276 204.987137,51.892868 
	C206.670334,53.393856 205.747726,55.196194 205.343430,56.951649 
	C204.589218,60.226467 202.507919,62.017712 199.324219,62.726006 
	C197.860672,63.051605 196.522720,62.704052 196.002838,61.326836 
	C194.964432,58.575985 193.692215,55.683662 196.938049,52.951218 
z"/>
<path fill="#000000" opacity="1.000000" stroke="none" 
	d="
M50.881989,174.637878 
	C50.810295,171.676376 49.658924,168.400391 53.592819,167.887100 
	C57.881676,167.327499 60.315819,170.093735 61.856850,173.699127 
	C62.665890,175.591965 62.250721,178.173935 60.332287,178.159058 
	C57.082535,178.133804 52.752121,179.946503 50.881989,174.637878 
z"/>
<path fill="#000000" opacity="1.000000" stroke="none" 
	d="
M266.916870,34.915901 
	C269.347565,35.546761 270.469574,36.799610 269.855957,38.988724 
	C269.205292,41.310165 269.128143,44.153030 266.072083,44.828144 
	C264.318604,45.215500 262.474304,45.326382 260.671112,45.324753 
	C257.388123,45.321785 256.427490,43.652058 258.113098,40.876038 
	C260.022491,37.731556 262.253357,34.831013 266.916870,34.915901 
z"/>
<path fill="#000000" opacity="1.000000" stroke="none" 
	d="
M354.041290,35.067871 
	C355.641296,31.050724 362.134369,30.029079 364.286255,33.238880 
	C366.707275,36.850090 362.172882,37.844204 361.247192,40.242809 
	C360.426697,42.368862 358.658173,42.109207 357.187622,40.825657 
	C355.564423,39.408878 353.954254,37.891701 354.041290,35.067871 
z"/>
<path fill="#000000" opacity="1.000000" stroke="none" 
	d="
M430.372742,381.037750 
	C428.297424,388.131897 426.559723,389.094482 422.908569,385.461243 
	C421.262360,383.823029 419.542053,382.091370 419.957275,379.490417 
	C420.226440,377.804474 421.764771,377.640320 423.089508,377.796387 
	C425.753662,378.110321 429.385559,376.149963 430.372742,381.037750 
z"/>
<path fill="#000000" opacity="1.000000" stroke="none" 
	d="
M400.012146,76.366432 
	C401.440125,72.227921 404.089905,72.645592 406.915314,73.870987 
	C408.729248,74.657692 410.267822,76.065155 409.130524,78.055283 
	C407.894745,80.217758 406.594116,83.238106 403.498474,82.752472 
	C400.499023,82.281929 399.315125,79.839569 400.012146,76.366432 
z"/>
</svg>